<svg width="147" height="21" fill="none" xmlns="http://www.w3.org/2000/svg"><path d="M6.861 4.037c-1.139 0-2.021.43-2.646 1.29-.625.852-.938 2.043-.938 3.573 0 3.184 1.195 4.776 3.584 4.776 1.003 0 2.217-.25 3.643-.752v2.539c-1.172.488-2.48.732-3.926.732-2.077 0-3.665-.628-4.766-1.885-1.1-1.263-1.65-3.072-1.65-5.43 0-1.484.27-2.782.81-3.896.541-1.12 1.316-1.976 2.325-2.568 1.015-.599 2.204-.898 3.564-.898 1.387 0 2.78.335 4.18 1.005l-.976 2.461a16.169 16.169 0 0 0-1.612-.664 4.807 4.807 0 0 0-1.592-.283Zm8.829 6.484c0 1.081.175 1.898.527 2.452.358.553.937.83 1.738.83.794 0 1.364-.274 1.71-.82.35-.554.526-1.374.526-2.462 0-1.08-.175-1.89-.527-2.431-.352-.54-.928-.81-1.729-.81-.794 0-1.367.27-1.718.81-.352.534-.527 1.344-.527 2.431Zm7.548 0c0 1.778-.468 3.168-1.406 4.17-.938 1.003-2.243 1.504-3.916 1.504-1.048 0-1.973-.228-2.773-.683a4.611 4.611 0 0 1-1.846-1.983c-.43-.86-.645-1.862-.645-3.008 0-1.783.466-3.17 1.397-4.16.93-.99 2.24-1.484 3.926-1.484 1.048 0 1.972.228 2.773.684.8.455 1.416 1.11 1.846 1.962.43.853.644 1.853.644 2.998Zm8.457 5.674c-1.282 0-2.288-.465-3.017-1.396h-.157c.105.911.157 1.439.157 1.582v4.424h-2.979V5.082h2.422l.42 1.416h.137c.696-1.08 1.728-1.621 3.095-1.621 1.29 0 2.299.498 3.028 1.494.729.996 1.093 2.38 1.093 4.15 0 1.166-.172 2.178-.517 3.038-.339.859-.824 1.513-1.455 1.963-.632.449-1.374.673-2.227.673Zm-.879-8.935c-.735 0-1.272.228-1.61.683-.34.45-.515 1.195-.528 2.237v.322c0 1.172.172 2.012.517 2.52.352.507.905.761 1.66.761 1.335 0 2.002-1.1 2.002-3.3 0-1.075-.166-1.879-.498-2.413-.325-.54-.84-.81-1.543-.81Zm5.977-2.178h3.262l2.06 6.143c.176.534.296 1.165.362 1.894h.058c.072-.67.212-1.302.42-1.894l2.022-6.143h3.193l-4.62 12.314c-.422 1.14-1.028 1.993-1.816 2.56-.78.566-1.696.849-2.744.849a6.917 6.917 0 0 1-1.513-.166v-2.364c.358.085.748.127 1.171.127.528 0 .987-.162 1.377-.488.398-.319.707-.804.928-1.455l.176-.537-4.336-10.84Zm19.043-.205c.404 0 .739.03 1.006.088l-.225 2.793a3.413 3.413 0 0 0-.879-.098c-.95 0-1.692.244-2.226.733-.528.488-.791 1.171-.791 2.05V16h-2.979V5.082h2.256l.44 1.836h.146a4.078 4.078 0 0 1 1.367-1.475 3.386 3.386 0 0 1 1.885-.566Zm2.861-2.617c0-.97.54-1.455 1.621-1.455s1.622.485 1.622 1.455c0 .462-.137.823-.41 1.084-.268.254-.671.38-1.212.38-1.08 0-1.62-.488-1.62-1.464ZM61.803 16h-2.979V5.082h2.979V16ZM74.439 5.082v1.514l-1.708.44a2.98 2.98 0 0 1 .468 1.64c0 1.172-.41 2.086-1.23 2.744-.814.651-1.947.976-3.399.976l-.537-.029-.44-.049c-.305.235-.458.495-.458.782 0 .43.547.644 1.64.644h1.856c1.198 0 2.11.257 2.734.772.632.514.948 1.27.948 2.265 0 1.276-.534 2.266-1.602 2.969-1.061.703-2.588 1.055-4.58 1.055-1.524 0-2.689-.267-3.496-.801-.801-.527-1.201-1.27-1.201-2.227 0-.657.205-1.207.615-1.65.41-.443 1.012-.758 1.806-.947a2.008 2.008 0 0 1-.8-.635c-.228-.3-.342-.615-.342-.947 0-.417.12-.762.361-1.036.241-.28.59-.553 1.045-.82a2.957 2.957 0 0 1-1.367-1.191c-.332-.547-.498-1.192-.498-1.934 0-1.191.387-2.112 1.162-2.763.775-.652 1.882-.977 3.32-.977.306 0 .668.03 1.084.088.424.052.694.091.81.117h3.81Zm-8.427 12.461c0 .41.195.732.586.967.397.234.95.351 1.66.351 1.068 0 1.904-.146 2.51-.44.605-.292.908-.692.908-1.2 0-.41-.18-.694-.537-.85-.358-.156-.912-.234-1.66-.234h-1.543c-.547 0-1.006.127-1.377.38-.365.261-.547.603-.547 1.026Zm1.084-8.887c0 .593.133 1.061.4 1.406.273.346.687.518 1.24.518.56 0 .97-.172 1.23-.518.261-.345.391-.813.391-1.406 0-1.315-.54-1.972-1.62-1.972-1.094 0-1.641.657-1.641 1.972ZM86.324 16h-2.978V9.623c0-1.575-.586-2.363-1.758-2.363-.833 0-1.436.283-1.807.85-.37.566-.556 1.484-.556 2.753V16h-2.979V.805h2.979V3.9c0 .241-.023.808-.069 1.7l-.068.879h.156c.664-1.068 1.719-1.602 3.164-1.602 1.283 0 2.256.345 2.92 1.035.664.69.996 1.68.996 2.969V16Zm7.666-2.178c.521 0 1.146-.114 1.875-.341v2.216c-.742.332-1.653.498-2.734.498-1.192 0-2.06-.3-2.608-.898-.54-.606-.81-1.51-.81-2.715V7.318h-1.426v-1.26l1.64-.995.86-2.305h1.904v2.324h3.057v2.236h-3.057v5.264c0 .423.118.736.352.938.24.201.557.302.947.302ZM112.496 16h-9.98v-2.1l3.584-3.623c1.061-1.087 1.754-1.839 2.08-2.256.325-.423.56-.813.703-1.171.143-.358.215-.73.215-1.114 0-.573-.16-.999-.479-1.279-.312-.28-.732-.42-1.26-.42-.553 0-1.09.127-1.611.381-.521.254-1.064.615-1.631 1.084l-1.64-1.943c.703-.6 1.285-1.023 1.748-1.27a6.258 6.258 0 0 1 1.513-.566 7.581 7.581 0 0 1 1.836-.205c.892 0 1.68.162 2.364.488.683.325 1.214.781 1.591 1.367.378.586.567 1.257.567 2.012 0 .657-.117 1.276-.352 1.855-.228.573-.586 1.162-1.074 1.768-.482.605-1.335 1.468-2.559 2.588l-1.836 1.728v.137h6.221V16Zm11.348-7.139c0 2.494-.41 4.34-1.231 5.537-.814 1.198-2.07 1.797-3.769 1.797-1.647 0-2.891-.618-3.731-1.855-.833-1.237-1.25-3.063-1.25-5.479 0-2.52.407-4.375 1.221-5.566.814-1.198 2.067-1.797 3.76-1.797 1.647 0 2.89.625 3.73 1.875.847 1.25 1.27 3.08 1.27 5.488Zm-6.983 0c0 1.752.15 3.008.45 3.77.306.755.817 1.133 1.533 1.133.703 0 1.211-.384 1.523-1.153.313-.768.469-2.018.469-3.75 0-1.751-.16-3.007-.479-3.77-.312-.767-.817-1.152-1.513-1.152-.71 0-1.218.385-1.524 1.153-.306.762-.459 2.018-.459 3.77ZM135.348 16h-9.981v-2.1l3.584-3.623c1.061-1.087 1.755-1.839 2.08-2.256.326-.423.56-.813.703-1.171.144-.358.215-.73.215-1.114 0-.573-.159-.999-.478-1.279-.313-.28-.733-.42-1.26-.42-.553 0-1.091.127-1.611.381-.521.254-1.065.615-1.631 1.084l-1.641-1.943c.703-.6 1.286-1.023 1.748-1.27a6.266 6.266 0 0 1 1.514-.566 7.581 7.581 0 0 1 1.836-.205c.892 0 1.679.162 2.363.488.684.325 1.214.781 1.592 1.367.377.586.566 1.257.566 2.012 0 .657-.117 1.276-.351 1.855-.228.573-.586 1.162-1.075 1.768-.481.605-1.334 1.468-2.558 2.588l-1.836 1.728v.137h6.221V16Zm11.347-7.139c0 2.494-.41 4.34-1.23 5.537-.814 1.198-2.07 1.797-3.77 1.797-1.647 0-2.89-.618-3.73-1.855-.833-1.237-1.25-3.063-1.25-5.479 0-2.52.407-4.375 1.221-5.566.813-1.198 2.067-1.797 3.759-1.797 1.647 0 2.891.625 3.731 1.875.846 1.25 1.269 3.08 1.269 5.488Zm-6.982 0c0 1.752.15 3.008.449 3.77.306.755.817 1.133 1.533 1.133.703 0 1.211-.384 1.524-1.153.312-.768.469-2.018.469-3.75 0-1.751-.16-3.007-.479-3.77-.313-.767-.817-1.152-1.514-1.152-.709 0-1.217.385-1.523 1.153-.306.762-.459 2.018-.459 3.77Z" fill="#fff"/></svg>